<?xml version="1.0" encoding="UTF-8"?>
<svg version="1.1" viewBox="0 0 1920 1080" width="1920" height="1080" xmlns="http://www.w3.org/2000/svg">
<path transform="translate(528,373)" d="m0 0h16l9 4 5 8 1 4v11l-5 27-8 42-3 19 6-2 15-7 14-4 17-2h12l19 2 18 6 11 6 8 6 12 11 10 14 8 16 4 14 2 11v29l-3 17-6 20-8 16-9 14-3 4h-2l-2 4-12 12-10 7-16 9-17 6-16 3h-26l-17-3-14-5-10-6-11-9-5-5-3-1-2 5-9 11-10 8-10 4-4 1h-17l-12-3-6-4-5-5-3-10v-9l4-24 8-40 11-63 12-71-1-6-3-3h-19l-9-3-7-6-6-11-2-11v-12l3-15 6-12 9-10 11-6 7-2h25l10 1h20zm32 172-11 4-11 8-6 8-4 10-2 14 1 15 4 11 7 9 10 6 10 2h12l12-3 9-5 5-4 7-10 4-13 1-6v-14l-4-13-6-9-9-6-10-4z" fill="#FEFEFE"/>
<path transform="translate(1340,373)" d="m0 0h13l10 4 5 5 4 8v17l-4 17-9 28-5 24-9 55-2 13v11l4 1 7-10 10-16 12-16 9-10 5-6 16-12 16-8 16-4h27l13 4 10 6 7 8 3 5 3 13v16l-3 14-6 12-9 10-9 6-10 3h-16l-10-5-9-10-4-4-4 1-8 13-7 7-9 5-8 3 3 2 10 2 10 5 5 5 6 9 7 17 1 1 7-1 10-13 5-5 7-4 4-1h13l9 3 5 5 3 4 2 8v11l-1 9-5 15-8 14-6 8-8 7-8 6-11 6-11 4-13 2h-17l-15-3-11-5-9-8-6-9-6-15-9-32-4-6-5-3h-6l-5 5-3 25-3 21-4 11-6 8-8 6-13 4-5 1h-23l-13-3-8-4-5-5-4-6-2-6v-17l6-23 8-30 9-49 7-39 7-46-1-8-2-2h-25l-8-3-5-5-4-6-3-9-1-15 2-17 5-12 7-9 9-6 10-4h61l17-2z" fill="#FEFEFE"/>
<path transform="translate(829,475)" d="m0 0h34l20 3 22 7 15 8 14 10 11 11 9 13 7 14 5 17 1 6v29l-4 20-6 18-6 11-9 13-11 12-12 10-15 9-16 7-16 5-17 3-15 1h-17l-21-2-20-5-18-8-14-9-12-11-8-9-7-11-6-14-3-11-2-13v-20l3-21 5-16 8-17 8-12 11-12 11-10 16-10 16-7 20-6zm7 70-13 4-8 5-5 5-6 9-3 7-2 12v12l2 11 5 9 7 7 7 4 15 3 15-2 10-4 6-4v-2l3-1 7-10 4-13 1-8v-10l-3-12-6-10-9-7-10-4-4-1z" fill="#FEFEFE"/>
<path transform="translate(1098,475)" d="m0 0h34l18 3 15 4 16 7 13 8 11 9 7 7 8 11 7 12 5 14 3 16v25l-3 18-5 17-10 19-8 11-9 10-13 11-11 7-12 6-13 5-21 5-22 2h-17l-20-2-16-4-17-6-14-8-12-9-9-9-10-14-6-13-4-12-2-12v-29l3-17 5-16 5-11 6-11 11-14 8-8 12-9 10-6 10-5 19-7 13-3zm6 70-13 4-9 6-7 8-5 11-2 7v23l4 11 6 8 9 6 9 3 11 1 15-3 10-5 7-7 6-10 4-13v-20l-4-11-6-8-7-6-10-4-4-1z" fill="#FEFEFE"/>
</svg>
